<?xml version="1.0"?>
<svg xmlns="http://www.w3.org/2000/svg" id="light" enable-background="new 0 0 24 24" height="512px" viewBox="0 0 24 24" width="512px" class=""><g><path d="m22.5 18h-21c-.827 0-1.5-.673-1.5-1.5v-13c0-.827.673-1.5 1.5-1.5h21c.827 0 1.5.673 1.5 1.5v13c0 .827-.673 1.5-1.5 1.5zm-21-15c-.276 0-.5.224-.5.5v13c0 .276.224.5.5.5h21c.276 0 .5-.224.5-.5v-13c0-.276-.224-.5-.5-.5z" data-original="#000000" class="active-path" data-old_color="#000000" fill="#109DDE"/><path d="m12 3c-.276 0-.5-.224-.5-.5v-2c0-.276.224-.5.5-.5s.5.224.5.5v2c0 .276-.224.5-.5.5z" data-original="#000000" class="active-path" data-old_color="#000000" fill="#109DDE"/><path d="m12 24c-.276 0-.5-.224-.5-.5v-6c0-.276.224-.5.5-.5s.5.224.5.5v6c0 .276-.224.5-.5.5z" data-original="#000000" class="active-path" data-old_color="#000000" fill="#109DDE"/><path d="m16.5 24c-.095 0-.191-.027-.277-.084l-4.5-3c-.23-.153-.292-.463-.139-.693.152-.23.462-.292.693-.139l4.5 3c.23.153.292.463.139.693-.096.145-.255.223-.416.223z" data-original="#000000" class="active-path" data-old_color="#000000" fill="#109DDE"/><path d="m7.5 24c-.162 0-.32-.078-.417-.223-.153-.23-.091-.54.139-.693l4.5-3c.229-.153.54-.092.693.139.153.23.091.54-.139.693l-4.5 3c-.084.057-.18.084-.276.084z" data-original="#000000" class="active-path" data-old_color="#000000" fill="#109DDE"/><path d="m7.5 14c-.128 0-.256-.049-.354-.146-.195-.195-.195-.512 0-.707l3.5-3.5c.152-.153.385-.19.577-.094l1.678.839 3.245-3.245c.195-.195.512-.195.707 0s.195.512 0 .707l-3.5 3.5c-.153.152-.385.188-.577.094l-1.678-.839-3.245 3.245c-.097.097-.225.146-.353.146z" data-original="#000000" class="active-path" data-old_color="#000000" fill="#109DDE"/><path d="m16.5 11c-.276 0-.5-.224-.5-.5v-2.5h-2.5c-.276 0-.5-.224-.5-.5s.224-.5.5-.5h3c.276 0 .5.224.5.5v3c0 .276-.224.5-.5.5z" data-original="#000000" class="active-path" data-old_color="#000000" fill="#109DDE"/></g> </svg>
